<svg width="75" height="37" viewBox="0 0 75 37" fill="none" xmlns="http://www.w3.org/2000/svg">
<rect x="1" y="1" width="73" height="35" stroke="#1A1B1C"/>
<path d="M25.064 21.382C24.994 20.486 24.56 19.758 23.888 19.338C24.7 18.918 25.204 18.232 25.204 17.224C25.204 15.446 24 14.2 21.956 14.2H17.938V24H19.8V20.318H21.914C22.642 20.318 23.16 20.85 23.23 21.592L23.468 24H25.302L25.064 21.382ZM21.872 15.754C22.964 15.754 23.412 16.44 23.412 17.224C23.412 18.008 22.964 18.722 21.872 18.722H19.8V15.754H21.872ZM33.6055 24V22.39H28.7755V19.772H32.5275V18.176H28.7755V15.796H33.4515V14.2H26.9275V24H33.6055ZM37.9886 24.112C40.1446 24.112 41.6426 23.006 41.6426 21.186C41.6426 17.364 36.3086 18.988 36.3086 16.818C36.3086 16.132 36.9106 15.684 37.8766 15.684C38.9126 15.684 39.5846 16.258 39.6686 17.112H41.4326C41.3486 15.278 39.9486 14.088 37.8766 14.088C35.8886 14.088 34.5026 15.208 34.5026 16.818C34.5026 20.57 39.7666 19.114 39.7666 21.214C39.7666 22.082 39.0386 22.502 37.9886 22.502C36.8126 22.502 36.0846 21.802 35.9866 20.71H34.2086C34.3066 22.768 35.7626 24.112 37.9886 24.112ZM49.3698 24V22.39H44.5398V19.772H48.2917V18.176H44.5398V15.796H49.2158V14.2H42.6917V24H49.3698ZM54.5368 24V15.796H57.4908V14.2H49.7208V15.796H52.6888V24H54.5368Z" fill="#1A1B1C"/>
</svg>
